<svg width="26" height="26" viewBox="0 0 26 26" fill="none" xmlns="http://www.w3.org/2000/svg">
<rect width="26" height="26" rx="13" fill="white"/>
<path d="M13 24C19.0751 24 24 19.0751 24 13C24 6.92487 19.0751 2 13 2C6.92487 2 2 6.92487 2 13C2 19.0751 6.92487 24 13 24Z" fill="#D80027"/>
<path d="M8.01992 8.69453L8.96953 11.6164H12.0418L9.5582 13.4254L10.5078 16.3473L8.01992 14.5426L5.53203 16.3473L6.48594 13.4254L3.99805 11.6164H7.07031L8.01992 8.69453Z" fill="#FFDA44"/>
<path d="M15.041 19.0371L14.3148 18.1434L13.2406 18.5602L13.8636 17.5934L13.1375 16.6953L14.2503 16.9918L14.8777 16.025L14.9378 17.1766L16.055 17.473L14.9765 17.8855L15.041 19.0371Z" fill="#FFDA44"/>
<path d="M16.4847 16.416L16.8285 15.316L15.8875 14.65L17.039 14.6328L17.3785 13.5328L17.7523 14.6242L18.9039 14.6113L17.98 15.2988L18.3496 16.3902L17.4085 15.7242L16.4847 16.416Z" fill="#FFDA44"/>
<path d="M18.4313 10.0738L17.9243 11.1094L18.7493 11.9129L17.6106 11.7496L17.1036 12.7809L16.9059 11.6465L15.7629 11.4832L16.7856 10.9461L16.5879 9.80743L17.4129 10.6109L18.4313 10.0738Z" fill="#FFDA44"/>
<path d="M15.0712 6.93711L14.9853 8.08438L16.0552 8.51836L14.9337 8.79336L14.8521 9.94492L14.2462 8.96524L13.1248 9.24024L13.8681 8.35938L13.258 7.38399L14.3279 7.81797L15.0712 6.93711Z" fill="#FFDA44"/>
</svg>
