<svg width="26" height="26" viewBox="0 0 26 26" fill="none" xmlns="http://www.w3.org/2000/svg">
<rect width="26" height="26" rx="13" fill="white"/>
<g clip-path="url(#clip0_170:1702)">
<path d="M13 24C19.0751 24 24 19.0751 24 13C24 6.92487 19.0751 2 13 2C6.92487 2 2 6.92487 2 13C2 19.0751 6.92487 24 13 24Z" fill="#F0F0F0"/>
<path d="M13.0001 2V13L5.22192 20.7782C7.21254 22.7688 9.96254 24 13.0001 24C19.0752 24 24.0001 19.0751 24.0001 13C24.0001 6.92491 13.0001 2 13.0001 2Z" fill="#D80027"/>
<path d="M13.0001 2C9.96254 2 7.21254 3.23123 5.22192 5.2218C7.92079 7.92066 8.87886 8.87878 13.0001 13H24.0001C24.0001 6.92491 19.0752 2 13.0001 2Z" fill="#0052B4"/>
<path d="M9.53205 13L8.18868 12.3681L8.90406 11.0671L7.44527 11.3461L7.26042 9.87244L6.2443 10.9563L5.22821 9.87244L5.04332 11.3461L3.58457 11.067L4.29996 12.3681L2.95654 13L4.29996 13.6319L3.58457 14.933L5.04345 14.6539L5.22817 16.1276L6.2443 15.0437L7.26042 16.1276L7.44527 14.6539L8.90398 14.933L8.18863 13.6319L9.53205 13Z" fill="#FFDA44"/>
<path d="M4.93352 6.30435L5.38056 6.92925L6.11297 6.69726L5.65673 7.31549L6.10377 7.94039L5.37476 7.69757L4.91856 8.31576L4.92428 7.54748L4.19531 7.30462L4.92785 7.07263L4.93352 6.30435Z" fill="#FFDA44"/>
<path d="M4.93352 17.6842L5.38056 18.3091L6.11297 18.0771L5.65673 18.6954L6.10377 19.3203L5.37476 19.0775L4.91856 19.6956L4.92428 18.9274L4.19531 18.6845L4.92785 18.4525L4.93352 17.6842Z" fill="#FFDA44"/>
<path d="M11.3098 11.9943L10.8628 12.6192L10.1304 12.3871L10.5866 13.0054L10.1396 13.6303L10.8686 13.3875L11.3248 14.0057L11.3191 13.2374L12.048 12.9946L11.3155 12.7626L11.3098 11.9943Z" fill="#FFDA44"/>
</g>
<defs>
<clipPath id="clip0_170:1702">
<rect width="22" height="22" fill="white" transform="translate(2 2)"/>
</clipPath>
</defs>
</svg>
