<svg width="26" height="26" viewBox="0 0 26 26" fill="none" xmlns="http://www.w3.org/2000/svg">
<rect width="26" height="26" rx="13" fill="white"/>
<path d="M13 24C19.0751 24 24 19.0751 24 13C24 6.92487 19.0751 2 13 2C6.92487 2 2 6.92487 2 13C2 19.0751 6.92487 24 13 24Z" fill="#F0F0F0"/>
<path d="M16.826 13C16.826 13.9565 15.113 16.3478 12.9999 16.3478C10.8868 16.3478 9.17383 13.9565 9.17383 13C9.17383 10.8869 10.8868 9.17393 12.9999 9.17393C15.113 9.17393 16.826 10.8869 16.826 13Z" fill="#D80027"/>
<path d="M16.826 13C16.826 15.1131 15.113 16.8261 12.9999 16.8261C10.8868 16.8261 9.17383 15.1131 9.17383 13" fill="#0052B4"/>
<path d="M18.0726 15.3673L17.0581 16.3819L17.7345 17.0582L18.749 16.0437L18.0726 15.3673Z" fill="black"/>
<path d="M16.3815 17.0583L15.3669 18.0729L16.0433 18.7492L17.0578 17.7347L16.3815 17.0583Z" fill="black"/>
<path d="M20.1019 17.396L19.0874 18.4105L19.7638 19.0869L20.7783 18.0723L20.1019 17.396Z" fill="black"/>
<path d="M18.4108 19.0873L17.3962 20.1018L18.0726 20.7782L19.0871 19.7636L18.4108 19.0873Z" fill="black"/>
<path d="M19.0873 16.3817L18.0728 17.3963L18.7491 18.0726L19.7636 17.0581L19.0873 16.3817Z" fill="black"/>
<path d="M17.3966 18.0728L16.3821 19.0873L17.0584 19.7636L18.073 18.7491L17.3966 18.0728Z" fill="black"/>
<path d="M16.3822 6.91249L19.0876 9.6179L19.764 8.94154L17.0586 6.23613L16.3822 6.91249Z" fill="black"/>
<path d="M15.3678 7.92743L16.3823 8.94196L17.0587 8.26563L16.0441 7.2511L15.3678 7.92743Z" fill="black"/>
<path d="M17.0585 9.61818L18.073 10.6327L18.7493 9.95638L17.7348 8.94185L17.0585 9.61818Z" fill="black"/>
<path d="M17.3959 5.89833L18.4104 6.91286L19.0868 6.2365L18.0722 5.22197L17.3959 5.89833Z" fill="black"/>
<path d="M19.0875 7.58927L20.1021 8.6038L20.7784 7.92744L19.7639 6.91291L19.0875 7.58927Z" fill="black"/>
<path d="M8.60361 20.1019L5.89819 17.3965L5.22183 18.0728L7.92725 20.7782L8.60361 20.1019Z" fill="black"/>
<path d="M9.61804 19.087L8.60352 18.0725L7.92719 18.7488L8.94171 19.7633L9.61804 19.087Z" fill="black"/>
<path d="M7.92712 17.3963L6.9126 16.3818L6.23624 17.0581L7.25076 18.0727L7.92712 17.3963Z" fill="black"/>
<path d="M10.6327 18.0726L7.92725 15.3672L7.25089 16.0436L9.95629 18.749L10.6327 18.0726Z" fill="black"/>
<path d="M5.8981 8.60356L8.60352 5.89814L7.92716 5.22178L5.22174 7.9272L5.8981 8.60356Z" fill="black"/>
<path d="M6.91251 9.61783L9.61792 6.91242L8.94156 6.23606L6.23615 8.94147L6.91251 9.61783Z" fill="black"/>
<path d="M7.9274 10.6328L10.6328 7.92741L9.95648 7.25108L7.25107 9.95649L7.9274 10.6328Z" fill="black"/>
</svg>
