<svg width="50" height="50" viewBox="0 0 50 50" fill="none" xmlns="http://www.w3.org/2000/svg">
<g clip-path="url(#clip0_65:1024)">
<path d="M24.9998 0.625C11.2684 0.625 0 11.6958 0 25.1862C0 29.5753 1.20879 33.8715 3.50185 37.6592L0.0757812 47.8529C-0.100195 48.3702 0.0371094 48.9407 0.429101 49.3258C0.823925 49.7137 1.40869 49.8463 1.92832 49.673L12.3041 46.307C16.1594 48.5598 20.5323 49.7474 24.9998 49.7474C38.7311 49.7474 49.9996 38.6767 49.9996 25.1862C49.9996 11.6958 38.7311 0.625 24.9998 0.625ZM24.9998 43.8949C22.5765 43.8949 20.6053 41.9582 20.6053 39.5775C20.6053 37.1967 22.5765 35.26 24.9998 35.26C27.423 35.26 29.3943 37.1967 29.3943 39.5775C29.3943 41.9583 27.423 43.8949 24.9998 43.8949ZM31.1753 23.1892L27.9295 26.378V29.5036C27.9295 31.0903 26.6148 32.3819 24.9998 32.3819C23.3848 32.3819 22.0701 31.0903 22.0701 29.5036V26.378C22.0701 24.8405 22.6795 23.3957 23.7867 22.3079L27.0325 19.1191C27.7828 18.3819 27.9295 17.6355 27.9295 16.6835C27.9295 15.0236 26.5548 13.6731 24.8653 13.6731C23.3247 13.6731 22.0701 14.9056 22.0701 16.4192C22.0701 18.0059 20.7555 19.2975 19.1404 19.2975C17.5254 19.2975 16.2107 18.0059 16.2107 16.4192C16.2107 11.7308 20.0931 7.91657 24.8652 7.91657C29.7862 7.91657 33.7886 11.8489 33.7886 16.6835C33.7887 19.4034 32.883 21.5114 31.1753 23.1892Z" fill="#E61B64"/>
</g>
<defs>
<clipPath id="clip0_65:1024">
<rect width="50" height="49.1228" fill="white" transform="translate(0 0.625)"/>
</clipPath>
</defs>
</svg>
