<svg width="27" height="26" viewBox="0 0 27 26" fill="none" xmlns="http://www.w3.org/2000/svg">
<g clip-path="url(#clip0_203:1143)">
<path d="M11.5057 15.4355L15.7345 13L11.5057 10.5645V15.4355Z" fill="#F70000"/>
<path d="M13.125 26C20.3047 26 26.125 20.1797 26.125 13C26.125 5.8203 20.3047 0 13.125 0C5.9453 0 0.125 5.8203 0.125 13C0.125 20.1797 5.9453 26 13.125 26Z" fill="#F20000"/>
<path d="M19.3206 9.87286C19.0606 9.0655 18.2002 8.58826 17.4014 8.47707C14.554 8.17431 11.6825 8.17431 8.83506 8.47707C8.04308 8.58826 7.18269 9.07234 6.92269 9.87286C6.51731 11.9383 6.51731 14.0628 6.92269 16.1283C7.18953 16.9339 8.04992 17.4129 8.84874 17.524C11.6962 17.8251 14.5676 17.8251 17.4151 17.524C18.207 17.4129 19.0674 16.9271 19.3274 16.1283C19.7305 14.0624 19.7282 11.9378 19.3206 9.87286ZM11.5702 15.4902V10.5092L15.6258 12.9997C14.2591 13.8396 12.9318 14.6572 11.5702 15.4902Z" fill="white"/>
</g>
<defs>
<clipPath id="clip0_203:1143">
<rect width="26" height="26" fill="white" transform="translate(0.125)"/>
</clipPath>
</defs>
</svg>
