<svg width="20" height="20" viewBox="0 0 20 20" fill="none" xmlns="http://www.w3.org/2000/svg">
<path d="M16.7716 16.3953C16.7195 15.8688 16.4374 15.3985 15.9974 15.105L13.0145 13.1166C12.3182 12.6525 11.3872 12.7463 10.7961 13.3363L9.84283 14.2976C9.62595 14.3731 8.6229 13.948 7.33142 12.6559C6.03939 11.3633 5.61998 10.3688 5.6749 10.1709L6.65279 9.19296C7.2433 8.60245 7.33599 7.66917 6.87251 6.97452L4.88412 3.99163C4.59056 3.55159 4.12021 3.26952 3.5938 3.21745C3.06623 3.1648 2.5524 3.35019 2.17872 3.72386L0.703569 5.19902C-1.31803 7.22062 1.3147 11.6632 4.82001 15.1691C7.20306 17.5521 12.418 21.6605 14.7901 19.2855L16.2652 17.8104C16.6389 17.4373 16.8237 16.9211 16.7716 16.3953Z" fill="#E61B64"/>
<path d="M11.2109 0C10.8871 0 10.625 0.26207 10.625 0.585938C10.625 0.909805 10.8871 1.17188 11.2109 1.17188C15.4109 1.17188 18.8281 4.58906 18.8281 8.78906C18.8281 9.11293 19.0902 9.375 19.4141 9.375C19.7379 9.375 20 9.11293 20 8.78906C20 3.9425 16.0575 0 11.2109 0ZM11.2109 2.34375C10.8871 2.34375 10.625 2.60582 10.625 2.92969C10.625 3.25355 10.8871 3.51562 11.2109 3.51562C14.1189 3.51562 16.4844 5.88113 16.4844 8.78906C16.4844 9.11293 16.7464 9.375 17.0703 9.375C17.3942 9.375 17.6563 9.11293 17.6563 8.78906C17.6563 5.23512 14.7649 2.34375 11.2109 2.34375ZM11.2109 4.6875C10.8871 4.6875 10.625 4.94957 10.625 5.27344C10.625 5.5973 10.8871 5.85938 11.2109 5.85938C12.8263 5.85938 14.1406 7.17371 14.1406 8.78906C14.1406 9.11293 14.4027 9.375 14.7266 9.375C15.0504 9.375 15.3125 9.11293 15.3125 8.78906C15.3125 6.5277 13.4723 4.6875 11.2109 4.6875ZM11.2109 7.03125C10.8871 7.03125 10.625 7.29332 10.625 7.61719C10.625 7.94105 10.8871 8.20312 11.2109 8.20312C11.5342 8.20312 11.7969 8.46578 11.7969 8.78906C11.7969 9.11293 12.0589 9.375 12.3828 9.375C12.7067 9.375 12.9688 9.11293 12.9688 8.78906C12.9688 7.81977 12.1802 7.03125 11.2109 7.03125Z" fill="#E61B64"/>
</svg>
