<svg width="27" height="27" viewBox="0 0 27 27" fill="none" xmlns="http://www.w3.org/2000/svg">
<path d="M13.125 26.1602C20.3047 26.1602 26.125 20.36 26.125 13.2051C26.125 6.05019 20.3047 0.25 13.125 0.25C5.9453 0.25 0.125 6.05019 0.125 13.2051C0.125 20.36 5.9453 26.1602 13.125 26.1602Z" fill="#334C8C"/>
<path d="M16.4195 11.9785L16.204 13.782C16.1947 13.8657 16.1546 13.9431 16.0914 13.9991C16.0282 14.0552 15.9465 14.0859 15.8619 14.0854H13.9803V19.4379C13.9808 19.5018 13.9558 19.5633 13.911 19.6089C13.8661 19.6546 13.805 19.6807 13.7408 19.6816H11.8233C11.7914 19.6812 11.7599 19.6745 11.7306 19.6619C11.7013 19.6493 11.6748 19.6311 11.6526 19.6083C11.6303 19.5855 11.6128 19.5586 11.601 19.5291C11.5892 19.4995 11.5834 19.468 11.5839 19.4362L11.5941 14.0854H10.1693C10.0785 14.0854 9.99151 14.0495 9.92735 13.9855C9.86319 13.9216 9.82715 13.8349 9.82715 13.7445V11.941C9.82715 11.8506 9.86319 11.7638 9.92735 11.6999C9.99151 11.636 10.0785 11.6001 10.1693 11.6001H11.5856V9.85112C11.5856 7.82774 12.7932 6.72656 14.5619 6.72656H16.0107C16.1014 6.72656 16.1885 6.76248 16.2526 6.82642C16.3168 6.89035 16.3528 6.97707 16.3528 7.06749V8.5863C16.3528 8.67672 16.3168 8.76343 16.2526 8.82737C16.1885 8.8913 16.1014 8.92722 16.0107 8.92722H15.1229C14.1616 8.94256 13.9803 9.4011 13.9803 10.0864V11.5949H16.086C16.134 11.5958 16.1813 11.6067 16.2249 11.6269C16.2684 11.6472 16.3072 11.6764 16.3386 11.7125C16.3701 11.7487 16.3936 11.7911 16.4075 11.8369C16.4214 11.8827 16.4255 11.931 16.4195 11.9785Z" fill="white"/>
</svg>
