<svg width="16" height="12" viewBox="0 0 16 12" fill="none" xmlns="http://www.w3.org/2000/svg">
<path d="M13.9535 11.5349H2.04651C1.50435 11.5329 0.984947 11.3167 0.601576 10.9333C0.218204 10.5499 0.00196083 10.0305 0 9.48837V2.04651C0.00196083 1.50435 0.218204 0.984947 0.601576 0.601576C0.984947 0.218204 1.50435 0.00196083 2.04651 0H13.9535C14.4957 0.00196083 15.0151 0.218204 15.3984 0.601576C15.7818 0.984947 15.998 1.50435 16 2.04651V9.48837C15.998 10.0305 15.7818 10.5499 15.3984 10.9333C15.0151 11.3167 14.4957 11.5329 13.9535 11.5349ZM2.04651 1.11628C1.7998 1.11628 1.56319 1.21429 1.38874 1.38874C1.21429 1.56319 1.11628 1.7998 1.11628 2.04651V9.48837C1.11628 9.73509 1.21429 9.97169 1.38874 10.1461C1.56319 10.3206 1.7998 10.4186 2.04651 10.4186H13.9535C14.2002 10.4186 14.4368 10.3206 14.6113 10.1461C14.7857 9.97169 14.8837 9.73509 14.8837 9.48837V2.04651C14.8837 1.7998 14.7857 1.56319 14.6113 1.38874C14.4368 1.21429 14.2002 1.11628 13.9535 1.11628H2.04651Z" fill="#E61B64"/>
<path d="M7.99987 6.7717C7.56801 6.7717 7.14403 6.65607 6.77196 6.43682L0.275219 2.57449C0.153837 2.49884 0.0656248 2.38001 0.0283426 2.24193C-0.00893947 2.10385 0.00747773 1.95677 0.0742887 1.83031C0.148592 1.70736 0.267993 1.61832 0.407021 1.58217C0.54605 1.54603 0.6937 1.56564 0.818475 1.63682L7.32266 5.4917C7.51991 5.61201 7.7465 5.67566 7.97754 5.67566C8.20859 5.67566 8.43517 5.61201 8.63243 5.4917L15.1366 1.63682C15.2614 1.56564 15.409 1.54603 15.5481 1.58217C15.6871 1.61832 15.8065 1.70736 15.8808 1.83031C15.9476 1.95677 15.964 2.10385 15.9267 2.24193C15.8895 2.38001 15.8013 2.49884 15.6799 2.57449L9.22778 6.43682C8.85571 6.65607 8.43173 6.7717 7.99987 6.7717Z" fill="#E61B64"/>
</svg>
