<svg width="11" height="16" viewBox="0 0 11 16" fill="none" xmlns="http://www.w3.org/2000/svg">
<path d="M8.57143 0H1.71429C1.25978 0.000499131 0.824037 0.181271 0.502654 0.502654C0.181271 0.824037 0.000499131 1.25978 0 1.71429V14.2857C0.000499131 14.7402 0.181271 15.176 0.502654 15.4973C0.824037 15.8187 1.25978 15.9995 1.71429 16H8.57143C9.02593 15.9995 9.46168 15.8187 9.78306 15.4973C10.1044 15.176 10.2852 14.7402 10.2857 14.2857V1.71429C10.2852 1.25978 10.1044 0.824037 9.78306 0.502654C9.46168 0.181271 9.02593 0.000499131 8.57143 0ZM9.14286 14.2857C9.14266 14.4372 9.08239 14.5824 8.97527 14.6896C8.86815 14.7967 8.72292 14.8569 8.57143 14.8571H1.71429C1.56279 14.8569 1.41756 14.7967 1.31044 14.6896C1.20332 14.5824 1.14305 14.4372 1.14286 14.2857V1.71429C1.14305 1.56279 1.20332 1.41756 1.31044 1.31044C1.41756 1.20332 1.56279 1.14305 1.71429 1.14286H2.72211L3.7444 1.654C3.82376 1.69367 3.91127 1.71431 4 1.71429H6.28571C6.37444 1.71431 6.46195 1.69367 6.54131 1.654L7.5636 1.14286H8.57143C8.72292 1.14305 8.86815 1.20332 8.97527 1.31044C9.08239 1.41756 9.14266 1.56279 9.14286 1.71429V14.2857Z" fill="#E61B64"/>
</svg>
