<svg width="16" height="16" viewBox="0 0 16 16" fill="none" xmlns="http://www.w3.org/2000/svg">
<path d="M12.785 1.98207C11.5068 0.703908 9.80743 0 7.99987 0C6.1923 0 4.49286 0.703908 3.21473 1.98207C1.93657 3.26026 1.23267 4.95963 1.23267 6.76717C1.23267 10.4238 4.69011 13.4652 6.54758 15.0992C6.80571 15.3262 7.02862 15.5223 7.20621 15.6882C7.42871 15.896 7.7143 16 7.99984 16C8.28543 16 8.57096 15.896 8.79349 15.6882C8.97109 15.5223 9.19399 15.3262 9.45212 15.0992C11.3096 13.4652 14.767 10.4238 14.767 6.76717C14.767 4.95963 14.0631 3.26026 12.785 1.98207ZM8.83306 14.3955C8.56927 14.6275 8.34149 14.8279 8.15368 15.0033C8.0674 15.0838 7.93227 15.0839 7.84596 15.0033C7.65818 14.8278 7.43037 14.6275 7.16658 14.3954C5.42033 12.8593 2.16986 9.99999 2.16986 6.7672C2.16986 3.55257 4.78514 0.937283 7.9998 0.937283C11.2144 0.937283 13.8297 3.55257 13.8297 6.7672C13.8298 9.99999 10.5793 12.8593 8.83306 14.3955Z" fill="#E61B64"/>
<path d="M7.9998 3.5293C6.35539 3.5293 5.01758 4.86708 5.01758 6.5115C5.01758 8.15591 6.35539 9.4937 7.9998 9.4937C9.64421 9.4937 10.982 8.15591 10.982 6.5115C10.982 4.86708 9.64421 3.5293 7.9998 3.5293ZM7.9998 8.55641C6.87221 8.55641 5.95483 7.63903 5.95483 6.51147C5.95483 5.3839 6.87221 4.46652 7.9998 4.46652C9.1274 4.46652 10.0447 5.3839 10.0447 6.51147C10.0447 7.63903 9.1274 8.55641 7.9998 8.55641Z" fill="#E61B64"/>
</svg>
