<svg width="24" height="25" viewBox="0 0 24 25" fill="none" xmlns="http://www.w3.org/2000/svg">
<g opacity="0.3" clip-path="url(#clip0_65:1006)">
<path d="M12 0.688477C5.40898 0.688477 0.00012207 6.09734 0.00012207 12.6884C0.00012207 14.8328 0.58034 16.9318 1.68101 18.7823L0.036497 23.7627C-0.0479717 24.0154 0.0179346 24.2942 0.206091 24.4823C0.395606 24.6718 0.676293 24.7366 0.925715 24.6519L5.90609 23.0074C7.75662 24.1081 9.85563 24.6883 12 24.6883C18.5911 24.6883 23.9999 19.2794 23.9999 12.6884C23.9999 6.09734 18.5911 0.688477 12 0.688477ZM12 21.8289C10.8369 21.8289 9.89065 20.8827 9.89065 19.7195C9.89065 18.5564 10.8369 17.6102 12 17.6102C13.1632 17.6102 14.1094 18.5564 14.1094 19.7195C14.1094 20.8827 13.1632 21.8289 12 21.8289ZM14.9643 11.7127L13.4063 13.2707V14.7978C13.4063 15.573 12.7752 16.204 12 16.204C11.2248 16.204 10.5938 15.573 10.5938 14.7978V13.2707C10.5938 12.5195 10.8863 11.8136 11.4177 11.2821L12.9757 9.72415C13.3359 9.36401 13.4063 8.99932 13.4063 8.53418C13.4063 7.72324 12.7464 7.06338 11.9355 7.06338C11.196 7.06338 10.5938 7.66559 10.5938 8.40509C10.5938 9.1803 9.96274 9.81134 9.18752 9.81134C8.4123 9.81134 7.78127 9.1803 7.78127 8.40509C7.78127 6.11445 9.64483 4.25093 11.9354 4.25093C14.2975 4.25093 16.2187 6.17215 16.2187 8.53418C16.2187 9.86309 15.784 10.893 14.9643 11.7127Z" fill="#0D47F9"/>
</g>
<defs>
<clipPath id="clip0_65:1006">
<rect width="24" height="24" fill="white" transform="translate(0 0.688477)"/>
</clipPath>
</defs>
</svg>
