<svg width="21" height="20" viewBox="0 0 21 20" fill="none" xmlns="http://www.w3.org/2000/svg">
<g clip-path="url(#clip0_65:207)">
<path d="M20.0343 7.7054C19.9654 7.49325 19.782 7.33864 19.5613 7.30661L13.3612 6.40564L10.5884 0.787416C10.4897 0.587416 10.286 0.460815 10.063 0.460815C9.83997 0.460815 9.6363 0.587416 9.53759 0.787416L6.76463 6.40564L0.564661 7.30661C0.343998 7.33864 0.1606 7.49325 0.0916939 7.70536C0.0227489 7.9175 0.0802487 8.15036 0.239975 8.30602L4.7262 12.6792L3.6673 18.8543C3.62957 19.0741 3.71996 19.2963 3.90039 19.4274C4.00246 19.5015 4.12336 19.5393 4.24484 19.5393C4.33812 19.5393 4.43171 19.517 4.51742 19.472L10.063 16.5564L15.6083 19.4719C15.8058 19.5757 16.0449 19.5584 16.2254 19.4273C16.4058 19.2962 16.4962 19.0741 16.4585 18.8542L15.3993 12.6792L19.886 8.30598C20.0457 8.15036 20.1032 7.9175 20.0343 7.7054Z" fill="#FBBC05"/>
</g>
<defs>
<clipPath id="clip0_65:207">
<rect width="20" height="20" fill="white" transform="translate(0.0629883)"/>
</clipPath>
</defs>
</svg>
