<svg width="14" height="14" viewBox="0 0 14 14" fill="none" xmlns="http://www.w3.org/2000/svg">
<path d="M11.9495 2.05C10.9705 1.07111 9.72322 0.404493 8.36537 0.134454C7.00752 -0.135585 5.60009 0.00308037 4.32105 0.532915C3.04201 1.06275 1.9488 1.95996 1.17966 3.11109C0.410525 4.26221 0 5.61556 0 7C0 8.38444 0.410525 9.73779 1.17966 10.8889C1.9488 12.04 3.04201 12.9373 4.32105 13.4671C5.60009 13.9969 7.00752 14.1356 8.36537 13.8656C9.72322 13.5955 10.9705 12.9289 11.9495 11.95C12.5996 11.3 13.1153 10.5283 13.4671 9.67895C13.8189 8.82963 14 7.91932 14 7C14 6.08069 13.8189 5.17038 13.4671 4.32105C13.1153 3.47173 12.5996 2.70002 11.9495 2.05ZM9.49949 8.77C9.54945 8.81677 9.58927 8.8733 9.6165 8.93608C9.64372 8.99887 9.65777 9.06657 9.65777 9.135C9.65777 9.20344 9.64372 9.27114 9.6165 9.33392C9.58927 9.39671 9.54945 9.45323 9.49949 9.5C9.45277 9.54634 9.39737 9.58301 9.33645 9.60789C9.27553 9.63277 9.2103 9.64538 9.1445 9.645C9.01332 9.64445 8.88762 9.59237 8.79449 9.5L6.9995 7.705L5.2295 9.5C5.13636 9.59237 5.01066 9.64445 4.8795 9.645C4.81369 9.64538 4.74846 9.63277 4.68754 9.60789C4.62662 9.58301 4.57122 9.54634 4.5245 9.5C4.43137 9.40632 4.3791 9.2796 4.3791 9.1475C4.3791 9.01541 4.43137 8.88868 4.5245 8.795L6.2945 7L4.5245 5.23C4.44258 5.13435 4.39978 5.01131 4.40464 4.88548C4.4095 4.75964 4.46167 4.64027 4.55071 4.55122C4.63976 4.46217 4.75913 4.41001 4.88497 4.40515C5.01081 4.40029 5.13384 4.44309 5.2295 4.525L6.9995 6.295L8.7695 4.525C8.81579 4.47707 8.87106 4.43873 8.93217 4.41216C8.99329 4.38559 9.05903 4.37132 9.12566 4.37015C9.19228 4.36899 9.25848 4.38097 9.32048 4.40539C9.38248 4.42982 9.43906 4.46621 9.48699 4.5125C9.53493 4.55879 9.57327 4.61407 9.59984 4.67518C9.62641 4.73629 9.64068 4.80204 9.64184 4.86866C9.643 4.93529 9.63103 5.00149 9.60661 5.06349C9.58218 5.12549 9.54579 5.18207 9.49949 5.23L7.70449 7L9.49949 8.77Z" fill="white"/>
</svg>
