<svg width="20" height="14" viewBox="0 0 20 14" fill="none" xmlns="http://www.w3.org/2000/svg">
<path d="M3.76711 9.14496C3.33056 10.243 2.64267 11.3277 1.72324 12.3729C1.4322 12.7036 1.39251 13.1798 1.63063 13.5502C1.81586 13.8413 2.1201 14 2.45082 14C2.54343 14 2.63605 13.9934 2.72866 13.9603C4.67329 13.3915 9.21751 11.3741 9.34318 4.90503C9.38945 2.41138 7.56388 0.268283 5.18924 0.0235461C3.87296 -0.108751 2.5633 0.321167 1.59094 1.19429C0.618628 2.07404 0.0629883 3.33081 0.0629883 4.64047C0.0629883 6.82326 1.61081 8.73487 3.76711 9.14496Z" fill="white"/>
<path d="M15.746 0.0235461C14.4363 -0.108751 13.1267 0.321167 12.1543 1.19429C11.182 2.07403 10.6263 3.33081 10.6263 4.64047C10.6263 6.82326 12.1742 8.73486 14.3305 9.14496C13.8939 10.243 13.206 11.3277 12.2866 12.3728C11.9956 12.7036 11.9559 13.1798 12.194 13.5502C12.3792 13.8413 12.6835 14 13.0142 14C13.1068 14 13.1994 13.9934 13.292 13.9603C15.2367 13.3915 19.7809 11.374 19.9065 4.90502V4.81245C19.9065 2.35845 18.1008 0.268283 15.746 0.0235461Z" fill="white"/>
</svg>
