<svg width="94" height="60" viewBox="0 0 94 60" fill="none" xmlns="http://www.w3.org/2000/svg">
<g clip-path="url(#clip0_65:384)">
<path d="M8.96805 57.0132L13.4398 59.9997L12.2477 54.3647L16.2004 50.5746L10.9979 50.0936L8.96805 44.7751L6.93815 50.0936L1.7384 50.5746L5.68285 54.3647L4.49897 59.9997L8.96805 57.0132Z" fill="#F7AC01"/>
<path d="M27.7689 57.013L32.2407 59.9995L31.0486 54.3645L35.0013 50.5742L29.7988 50.0932L27.7689 44.7749L25.7417 50.0932L20.5392 50.5742L24.4837 54.3645L23.2998 59.9995L27.7689 57.013Z" fill="#F7AC01"/>
<path d="M46.5666 57.013L51.0385 59.9995L49.8463 54.3645L53.799 50.5742L48.5965 50.0932L46.5666 44.7749L44.5312 50.0932L39.337 50.5742L43.2814 54.3645L42.0975 59.9995L46.5666 57.013Z" fill="#F7AC01"/>
<path d="M65.3703 57.013L69.8394 59.9995L68.6473 54.3645L72.5999 50.5742L67.3975 50.0932L65.3703 44.7749L63.3404 50.0932L58.1379 50.5742L62.0823 54.3645L60.8985 59.9995L65.3703 57.013Z" fill="#F7AC01"/>
<path d="M84.1692 57.013L79.6974 59.9995L80.8813 54.3645L76.9368 50.5742L82.1311 50.0841L84.1692 44.7749" fill="#F7AC01"/>
<path opacity="0.3" d="M87.4451 54.3645L88.629 59.9995L84.1681 57.013V44.7749L86.198 50.0841L91.3978 50.5742L87.4451 54.3645Z" fill="#F7AC01"/>
<path d="M4.29244 35.7339C3.4423 35.7171 2.61504 35.4258 1.91203 34.8958C1.20902 34.3657 0.660794 33.6199 0.334533 32.7497C0.0082714 31.8794 -0.081854 30.9226 0.0752006 29.9964C0.232256 29.0703 0.629667 28.2151 1.21874 27.5356C1.61669 27.0817 2.09542 26.7244 2.62455 26.4866C3.15368 26.2486 3.72166 26.1351 4.29244 26.1534C4.86888 26.1331 5.44198 26.2578 5.96865 26.5183C6.49532 26.7788 6.96185 27.1682 7.33318 27.6573L6.5778 28.4762C6.30478 28.0966 5.95673 27.7916 5.56048 27.5847C5.16424 27.3778 4.7304 27.2744 4.29244 27.2829C3.86594 27.2717 3.4419 27.3576 3.04648 27.535C2.65106 27.7126 2.29265 27.9779 1.99334 28.3149C1.40727 29.0406 1.08322 29.9803 1.08322 30.9542C1.08322 31.9282 1.40727 32.868 1.99334 33.5937C2.29239 33.9308 2.65082 34.1961 3.04635 34.3731C3.44187 34.5502 3.86603 34.6351 4.29244 34.6227C4.77911 34.6097 5.25714 34.4773 5.69218 34.2352C6.12722 33.9931 6.50847 33.6471 6.80853 33.2223L7.58039 34.0503C7.19018 34.5759 6.69444 34.9929 6.13281 35.2681C5.55661 35.5679 4.92894 35.7267 4.29244 35.7339ZM13.4448 35.5268H12.4697V34.6136H12.4203C12.2406 34.9416 11.9844 35.2098 11.6786 35.3899C11.3565 35.5873 10.9947 35.6921 10.6266 35.6942C10.325 35.7209 10.0218 35.6754 9.7375 35.5609C9.45316 35.4464 9.19433 35.2656 8.97853 35.0306C8.59864 34.5234 8.40279 33.8777 8.42916 33.2192V29.2433H9.48944V33.1127C9.45151 33.4783 9.54583 33.8457 9.75175 34.1344C9.95768 34.4231 10.2584 34.6097 10.5881 34.6531C10.6866 34.6668 10.7863 34.6668 10.8848 34.6531C11.0854 34.6618 11.2851 34.6197 11.4688 34.53C11.6526 34.4403 11.8154 34.3054 11.9451 34.1356C12.2318 33.752 12.384 33.2667 12.3736 32.7687V29.2433H13.4393L13.4448 35.5268ZM19.0429 33.7854C19.0398 34.0568 18.9793 34.3234 18.8662 34.564C18.7531 34.8046 18.5907 35.0123 18.3919 35.1707C17.9173 35.5629 17.3352 35.7618 16.7438 35.7339C16.208 35.7468 15.6822 35.5721 15.2413 35.2346C14.8181 34.9168 14.4954 34.46 14.3183 33.9286L15.2715 33.4841C15.3873 33.8487 15.5987 34.1667 15.8785 34.3974C16.1318 34.5998 16.4371 34.7064 16.7493 34.7018C17.0391 34.708 17.3247 34.6236 17.5733 34.4582C17.6695 34.4026 17.7511 34.3204 17.8102 34.2197C17.8694 34.1189 17.9042 34.0029 17.9112 33.8829C17.9112 33.4841 17.6365 33.1919 17.0871 32.9696L16.1175 32.6957C15.0188 32.3912 14.4694 31.7823 14.4694 30.9299C14.4693 30.6637 14.5279 30.4014 14.6399 30.1659C14.7519 29.9304 14.914 29.7287 15.1122 29.5782C15.552 29.2629 16.0603 29.0846 16.5837 29.0621C17.1072 29.0396 17.6264 29.1737 18.087 29.4503C18.4623 29.6922 18.7528 30.0678 18.911 30.5159L17.9661 30.9542C17.8551 30.6929 17.6699 30.479 17.4387 30.3454C17.1863 30.192 16.9025 30.1133 16.6147 30.1171C16.3513 30.1141 16.0924 30.1932 15.8675 30.3454C15.7722 30.3981 15.6913 30.4781 15.6334 30.5771C15.5754 30.6762 15.5424 30.7907 15.5379 30.9087C15.5379 31.2739 15.8428 31.5174 16.4499 31.6819L17.2739 31.9284C18.4578 32.2024 19.0429 32.8296 19.0429 33.7854ZM22.1468 35.6121C21.9451 35.6287 21.7425 35.601 21.5504 35.5307C21.3584 35.4604 21.1808 35.3489 21.0277 35.2023C20.8746 35.0559 20.7491 34.8774 20.6583 34.6771C20.5675 34.4768 20.5133 34.2587 20.4987 34.0351C20.4932 33.953 20.4932 33.8707 20.4987 33.7886V30.318H19.5071V29.2433H20.5014V27.3193H21.57V29.2433H22.9434V30.318H21.57V33.4506C21.5537 33.6003 21.5643 33.7522 21.6011 33.8974C21.6378 34.0427 21.7001 34.1783 21.7842 34.2969C21.9185 34.4408 22.0973 34.5224 22.2841 34.5252C22.3663 34.5343 22.4491 34.5343 22.5313 34.5252L22.7621 34.4339L23.1494 35.4507C22.8348 35.5691 22.5037 35.6248 22.1715 35.6151L22.1468 35.6121ZM31.3679 35.5299H30.2911V29.2433H31.3184V30.1567C31.4996 29.8278 31.7578 29.5596 32.0656 29.3803C32.3719 29.1887 32.7164 29.084 33.0682 29.0759C33.453 29.0606 33.8339 29.166 34.1669 29.3803C34.4777 29.5968 34.719 29.9164 34.8564 30.2937C35.0558 29.9169 35.342 29.6056 35.6856 29.3917C36.0293 29.1777 36.418 29.0688 36.8121 29.0759C37.0939 29.0548 37.3763 29.1033 37.6391 29.2181C37.9018 29.3329 38.1382 29.511 38.3311 29.7396C38.7139 30.2758 38.902 30.9511 38.8585 31.6331V35.5603H37.8394V31.7976C37.8719 31.3488 37.7706 30.9007 37.551 30.522C37.4251 30.3794 37.2717 30.2703 37.1024 30.2029C36.933 30.1353 36.7521 30.1112 36.5731 30.1323C36.3735 30.1326 36.1767 30.1844 35.9984 30.2838C35.82 30.3831 35.6651 30.5272 35.5458 30.7047C35.2655 31.0879 35.1175 31.5692 35.1283 32.0624V35.542H34.0653V31.7976C34.1019 31.3506 34.0054 30.9026 33.7906 30.522C33.6647 30.3794 33.5113 30.2703 33.342 30.2029C33.1726 30.1353 32.9917 30.1112 32.8127 30.1323C32.6131 30.1326 32.4163 30.1844 32.238 30.2838C32.0596 30.3831 31.9047 30.5272 31.7854 30.7047C31.5129 31.0916 31.371 31.5718 31.3844 32.0624L31.3679 35.5299ZM47.4313 35.5299H46.3628V29.2433H47.3819V30.2754H47.4313C47.5577 29.9133 47.7924 29.6103 48.0961 29.4169C48.3866 29.1941 48.7291 29.0693 49.0822 29.0577C49.3637 29.0446 49.6445 29.0974 49.9062 29.2129L49.5766 30.3607C49.3763 30.2848 49.1643 30.2538 48.9531 30.2693C48.7545 30.2697 48.5583 30.3178 48.3781 30.4102C48.1979 30.5028 48.038 30.6374 47.9093 30.8051C47.6215 31.1458 47.4622 31.5957 47.4643 32.0624L47.4313 35.5299ZM68.5215 35.5299H67.4365L65.1456 29.2464H66.3048L67.9529 34.1173L69.601 29.2464H70.8178L68.5215 35.5299ZM72.9027 27.0789C72.9041 27.189 72.885 27.2982 72.8467 27.3998C72.8085 27.5013 72.7518 27.5931 72.6802 27.6694C72.6108 27.7466 72.5284 27.8077 72.4376 27.8493C72.3469 27.891 72.2496 27.9126 72.1514 27.9126C72.0532 27.9126 71.9559 27.891 71.8652 27.8493C71.7745 27.8077 71.692 27.7466 71.6226 27.6694C71.551 27.5931 71.4943 27.5013 71.4561 27.3998C71.4178 27.2982 71.3988 27.189 71.4002 27.0789C71.3999 26.9677 71.4203 26.8577 71.46 26.7556C71.4997 26.6534 71.5578 26.5614 71.6309 26.4852C71.7002 26.4072 71.7833 26.3459 71.875 26.305C71.9667 26.2642 72.065 26.2447 72.1638 26.2478C72.2615 26.2462 72.3586 26.2664 72.4492 26.3072C72.5398 26.348 72.6221 26.4086 72.6912 26.4852C72.7591 26.5639 72.8116 26.6572 72.8457 26.7593C72.8797 26.8614 72.8944 26.9702 72.8889 27.0789H72.9027ZM72.6802 29.2464V35.5299H71.6281V29.2433L72.6802 29.2464ZM88.1256 29.2464L86.3017 35.5299H85.203L83.7966 30.7108L82.4094 35.5268H81.3107L79.4868 29.2433H80.5855L81.8601 33.9864L83.2582 29.2433H84.3569L85.7551 33.9864L87.0049 29.2433L88.1256 29.2464ZM93.1633 33.8129C93.1607 34.0839 93.1007 34.3506 92.9881 34.5911C92.8755 34.8318 92.7135 35.0397 92.515 35.198C92.0401 35.5896 91.4583 35.7884 90.8669 35.7612C90.3303 35.7742 89.8036 35.5996 89.3616 35.262C88.936 34.9387 88.6168 34.4707 88.4525 33.9286L89.3974 33.4841C89.5186 33.8454 89.729 34.1619 90.0044 34.3974C90.2589 34.5993 90.5649 34.706 90.8779 34.7018C91.1678 34.708 91.4533 34.6236 91.7019 34.4582C91.7981 34.4029 91.8796 34.3208 91.9383 34.2199C91.9971 34.1189 92.0311 34.0028 92.0371 33.8829C92.0371 33.4841 91.7624 33.1919 91.213 32.9696L90.2434 32.6957C89.1447 32.3912 88.5953 31.7823 88.5953 30.9299C88.5904 30.6607 88.6455 30.3942 88.7557 30.1542C88.8659 29.9142 89.0278 29.708 89.2271 29.5539C89.6669 29.2386 90.1752 29.0602 90.6986 29.0377C91.2221 29.0152 91.7413 29.1493 92.2019 29.426C92.5772 29.6679 92.8677 30.0434 93.0259 30.4916L92.081 30.9299C91.9702 30.6693 91.7861 30.4557 91.5564 30.3211C91.3038 30.1683 91.0201 30.0897 90.7323 30.0928C90.4681 30.0902 90.2084 30.1692 89.9824 30.3211C89.8874 30.3739 89.807 30.454 89.7495 30.5531C89.692 30.6521 89.6595 30.7666 89.6556 30.8842C89.6556 31.2496 89.9605 31.4931 90.5675 31.6576L91.3916 31.9041C92.5837 32.2086 93.1495 32.8174 93.1495 33.7794L93.1633 33.8129ZM28.5963 29.9892C28.328 29.6832 28.0042 29.4436 27.6463 29.2861C27.2884 29.1288 26.9044 29.0571 26.5197 29.0759C26.1323 29.0587 25.7459 29.1309 25.3851 29.2881C25.0243 29.4453 24.6969 29.6841 24.4239 29.9892C23.9037 30.6537 23.6172 31.5039 23.6172 32.3836C23.6172 33.2633 23.9037 34.1134 24.4239 34.7779C24.6965 35.0837 25.0238 35.3228 25.3847 35.4801C25.7457 35.6373 26.1323 35.7092 26.5197 35.6912C26.9044 35.7101 27.2884 35.6384 27.6463 35.481C28.0042 35.3236 28.328 35.084 28.5963 34.7779C29.1356 34.1238 29.4347 33.2697 29.4347 32.3836C29.4347 31.4974 29.1356 30.6434 28.5963 29.9892ZM27.8327 34.0229C27.6674 34.2259 27.4645 34.387 27.2379 34.4952C27.0114 34.6034 26.7664 34.6562 26.5197 34.6501C26.2715 34.656 26.025 34.6031 25.7966 34.495C25.5683 34.3868 25.3635 34.2259 25.1958 34.0229C24.8562 33.5612 24.6708 32.9838 24.6708 32.3881C24.6708 31.7924 24.8562 31.2151 25.1958 30.7533C25.3633 30.5496 25.5679 30.3874 25.7961 30.2777C26.0244 30.168 26.271 30.1133 26.5197 30.1171C26.767 30.1122 27.0123 30.1666 27.2389 30.2764C27.4655 30.3862 27.668 30.5489 27.8327 30.7533C28.1787 31.2118 28.3683 31.7904 28.3683 32.3881C28.3683 32.9858 28.1787 33.5644 27.8327 34.0229ZM45.3767 32.4764C45.4235 31.5576 45.1557 30.653 44.6268 29.9436C44.3616 29.6541 44.0476 29.4253 43.7026 29.2704C43.3576 29.1157 42.9884 29.0377 42.6162 29.041C42.244 29.0444 41.876 29.1291 41.5333 29.2902C41.1907 29.4513 40.8801 29.6858 40.6192 29.9801C40.0747 30.6301 39.7793 31.4891 39.7952 32.376C39.7831 32.8153 39.8497 33.2531 39.9911 33.6638C40.1326 34.0744 40.346 34.4501 40.6192 34.7688C40.8829 35.0749 41.2028 35.3148 41.5572 35.4723C41.9116 35.6298 42.2924 35.7013 42.6738 35.6821C43.213 35.695 43.7447 35.5411 44.2093 35.2377C44.6595 34.9416 45.0266 34.5126 45.2696 33.9986L44.3164 33.481C44.1361 33.889 43.8357 34.2166 43.4648 34.4098C43.0939 34.603 42.6746 34.6503 42.2762 34.5439C41.8777 34.4376 41.5239 34.1838 41.2731 33.8244C41.0223 33.4652 40.8895 33.0219 40.8966 32.5678H45.3273L45.3767 32.4764ZM40.9818 31.6271C41.0609 31.2 41.2634 30.8131 41.5586 30.525C41.847 30.2529 42.2155 30.1077 42.5942 30.1171C43.0165 30.0957 43.4311 30.2474 43.7588 30.5433C44.0405 30.8209 44.2122 31.2102 44.2368 31.6271H40.9818ZM56.6854 31.7458V31.7001C57.2359 31.582 57.7337 31.2599 58.0973 30.7869C58.4657 30.3213 58.6679 29.7226 58.6659 29.1033C58.6688 28.7371 58.6021 28.3743 58.4701 28.0387C58.338 27.7029 58.1436 27.4018 57.8995 27.155C57.4055 26.6367 56.7474 26.3546 56.0674 26.3696H53.2931V35.5238H54.3918V31.7976H55.5427L57.7786 35.5147H59.0339V35.4599L56.6854 31.7458ZM54.3671 30.7077V27.4747H56.1498C56.342 27.4722 56.5328 27.5118 56.7113 27.5911C56.8898 27.6704 57.0524 27.788 57.1899 27.9369C57.3273 28.0859 57.437 28.2634 57.5126 28.4594C57.5881 28.6553 57.6282 28.8659 57.6303 29.079C57.6337 29.2966 57.5951 29.5123 57.5169 29.7119C57.4387 29.9114 57.3228 30.0901 57.1771 30.2358C56.8817 30.5482 56.4865 30.7179 56.0783 30.7077H54.3671ZM64.8847 32.4764C64.9323 31.558 64.6655 30.6534 64.1375 29.9436C63.8721 29.654 63.5578 29.4252 63.2126 29.2703C62.8674 29.1153 62.498 29.0374 62.1255 29.0408C61.7531 29.0442 61.3849 29.1289 61.042 29.29C60.6991 29.4512 60.3883 29.6857 60.1272 29.9801C59.5827 30.6301 59.2872 31.4891 59.3031 32.376C59.2809 33.2631 59.5773 34.1237 60.1272 34.7688C60.3926 35.0749 60.7139 35.3148 61.0696 35.4722C61.4254 35.6298 61.8074 35.7013 62.19 35.6821C62.7264 35.6937 63.2552 35.5398 63.7173 35.2377C64.1687 34.9432 64.5362 34.5138 64.7775 33.9986L63.8326 33.481C63.6406 33.965 63.283 34.3447 62.8385 34.5364C62.3939 34.7282 61.8989 34.7166 61.4621 34.5039C61.2724 34.4121 61.0986 34.2843 60.9485 34.1264C60.7711 33.9328 60.631 33.7013 60.5366 33.446C60.4422 33.1907 60.3954 32.9168 60.3991 32.6408H64.8517L64.8847 32.4764ZM60.5062 31.6271C60.5708 31.1867 60.7707 30.7844 61.0721 30.4884C61.3621 30.2196 61.7295 30.0748 62.1076 30.0806C62.5309 30.0581 62.9467 30.2099 63.275 30.5068C63.5554 30.7851 63.7261 31.1742 63.7502 31.5906L60.5062 31.6271ZM79.2231 32.4764C79.2707 31.558 79.0039 30.6534 78.476 29.9436C78.2106 29.654 77.8963 29.4252 77.551 29.2703C77.2058 29.1153 76.8364 29.0374 76.464 29.0408C76.0915 29.0442 75.7233 29.1289 75.3805 29.29C75.0376 29.4512 74.7267 29.6857 74.4656 29.9801C73.9211 30.6301 73.6257 31.4891 73.6416 32.376C73.6295 32.8153 73.6961 33.2531 73.8375 33.6638C73.979 34.0744 74.1924 34.4501 74.4656 34.7688C74.7293 35.0749 75.0492 35.3148 75.4036 35.4723C75.758 35.6298 76.1388 35.7013 76.5202 35.6821C77.0594 35.695 77.5911 35.5411 78.0557 35.2377C78.5066 34.9424 78.8739 34.5132 79.116 33.9986L78.204 33.5176C78.0247 33.9266 77.7247 34.2554 77.3536 34.4494C76.9826 34.6436 76.5628 34.6912 76.164 34.5847C75.7651 34.478 75.4111 34.2236 75.1607 33.8633C74.9102 33.5031 74.7784 33.0589 74.787 32.6043H79.2396L79.2231 32.4764ZM74.8282 31.6271C74.9064 31.2003 75.1079 30.8134 75.4023 30.525C75.6909 30.2533 76.0593 30.1082 76.4378 30.1171C76.8609 30.096 77.2763 30.2477 77.6052 30.5433C77.8851 30.822 78.0557 31.2109 78.0804 31.6271H74.8282Z" fill="#303030"/>
<path d="M32.7835 7.56502H25.9686V9.78736H30.8168C30.5805 12.9017 28.243 14.232 26.0345 14.232C25.3352 14.2349 24.6424 14.0836 23.9965 13.7866C23.3505 13.4897 22.7644 13.0532 22.2722 12.5027C21.7801 11.952 21.3917 11.2984 21.1298 10.5798C20.8679 9.86114 20.7378 9.09193 20.7469 8.31696C20.7344 7.53852 20.8624 6.76515 21.1232 6.04223C21.384 5.31929 21.7724 4.66137 22.2657 4.10703C22.759 3.55267 23.3472 3.11307 23.9957 2.81399C24.6443 2.51492 25.3403 2.36238 26.0428 2.36534C27.3879 2.36197 28.6818 2.93711 29.6521 3.96969L31.0447 2.35925C29.6849 0.902864 27.8594 0.103653 25.9686 0.136908C24.0192 0.155582 22.1533 1.01677 20.7681 2.53717C19.3829 4.05757 18.5879 6.11711 18.5522 8.27738C18.5732 10.4677 19.3775 12.5592 20.7886 14.0928C22.1997 15.6264 24.1022 16.4769 26.0785 16.4574C30.0202 16.4574 32.9071 13.4649 32.9071 9.03846C32.916 8.54373 32.8745 8.04946 32.7835 7.56502Z" fill="#4285F4"/>
<path d="M38.549 5.95714C37.9263 5.94414 37.3076 6.06931 36.7292 6.32528C36.1508 6.58126 35.6245 6.96287 35.1812 7.44766C34.7379 7.93245 34.3866 8.51062 34.1479 9.14814C33.9092 9.78566 33.788 10.4697 33.7915 11.1599C33.7802 11.8596 33.8966 12.5545 34.1336 13.2031C34.3706 13.8517 34.7234 14.4406 35.1707 14.9343C35.6181 15.4282 36.1508 15.8168 36.737 16.0769C37.3232 16.3369 37.9507 16.4631 38.5819 16.4478C39.204 16.4589 39.8218 16.3313 40.3986 16.0726C40.9753 15.8138 41.4992 15.4292 41.9392 14.9416C42.3791 14.454 42.7262 13.8733 42.9596 13.2341C43.1931 12.5949 43.3082 11.9102 43.2982 11.2208C43.2982 7.7472 40.8261 5.95714 38.549 5.95714ZM38.5764 8.01814C39.9498 8.01814 41.2326 9.23586 41.2326 11.2056C41.2326 13.1752 39.9443 14.3899 38.5709 14.3899C37.0602 14.3899 35.8681 13.0473 35.8681 11.1903C35.8681 9.33328 37.0464 8.01814 38.5764 8.01814Z" fill="#EA4335"/>
<path d="M48.8395 5.95714C48.2168 5.94414 47.5981 6.06931 47.0197 6.32528C46.4414 6.58126 45.9152 6.96287 45.4719 7.44766C45.0286 7.93245 44.6771 8.51062 44.4385 9.14814C44.1998 9.78566 44.0786 10.4697 44.082 11.1599C44.0707 11.8596 44.1871 12.5545 44.4241 13.2031C44.6611 13.8517 45.0139 14.4406 45.4612 14.9343C45.9086 15.4282 46.4413 15.8168 47.0275 16.0769C47.6137 16.3369 48.2413 16.4631 48.8726 16.4478C49.4946 16.4589 50.1125 16.3313 50.6892 16.0726C51.2659 15.8138 51.7899 15.4292 52.2298 14.9416C52.6698 14.454 53.0168 13.8733 53.2503 13.2341C53.4837 12.5949 53.5989 11.9102 53.5889 11.2208C53.5889 7.7472 51.1166 5.95714 48.8395 5.95714ZM48.867 8.01814C50.2404 8.01814 51.5232 9.23586 51.5232 11.2056C51.5232 13.1752 50.2349 14.3899 48.8615 14.3899C47.3507 14.3899 46.1586 13.0473 46.1586 11.1903C46.1586 9.33328 47.337 8.01814 48.867 8.01814Z" fill="#FBBC05"/>
<path d="M58.9875 5.96418C56.444 5.96418 54.4443 8.43311 54.4443 11.2034C54.4443 14.3634 56.7626 16.4549 58.9436 16.4549C59.4353 16.4839 59.9261 16.3837 60.3763 16.1626C60.8264 15.9414 61.223 15.6056 61.5338 15.1823V16.2143C61.5338 18.0258 60.5422 19.1096 59.048 19.1096C58.5213 19.1042 58.0084 18.923 57.5762 18.5894C57.144 18.256 56.8126 17.7858 56.6253 17.2403L54.8096 18.0988C55.4551 19.621 56.7544 21.1888 59.0672 21.1888C61.597 21.1888 63.5253 19.4231 63.5253 15.709V6.14989H61.5338V7.16669C61.2108 6.77572 60.8158 6.46608 60.3756 6.25865C59.9354 6.0512 59.4602 5.95079 58.982 5.96418H58.9875ZM59.1716 8.01909C60.4214 8.01909 61.7014 9.20028 61.7014 11.2157C61.7014 13.2309 60.4351 14.3939 59.1441 14.3939C57.7899 14.3939 56.5264 13.1761 56.5264 11.2339C56.5264 9.22159 57.8366 8.01909 59.1716 8.01909Z" fill="#4285F4"/>
<path d="M72.1721 5.95215C69.7741 5.95215 67.7579 8.08317 67.7579 11.1883C67.7579 14.4944 70.0049 16.452 72.4028 16.452C73.1832 16.4531 73.9521 16.2432 74.6428 15.8406C75.3335 15.4379 75.9251 14.8547 76.3665 14.1413L74.7184 12.9237C74.4811 13.3693 74.1417 13.7376 73.7345 13.991C73.3274 14.2444 72.867 14.374 72.4001 14.3667C71.0679 14.3667 70.4581 13.5599 70.079 12.7774L76.4379 9.8793L76.1083 9.02386C75.8052 8.13383 75.268 7.36516 74.5662 6.81748C73.8644 6.26979 73.0303 5.96834 72.1721 5.95215ZM72.2545 7.96748C72.6124 7.95096 72.9671 8.0475 73.2774 8.24585C73.5877 8.44419 73.8407 8.73618 74.007 9.08779L69.7741 11.0514C69.5901 9.52922 70.8893 7.96748 72.2463 7.96748H72.2545Z" fill="#EA4335"/>
<path d="M66.7936 0.678436H64.8488V16.1404H66.7936V0.678436Z" fill="#34A853"/>
</g>
<defs>
<clipPath id="clip0_65:384">
<rect width="94" height="60" fill="white"/>
</clipPath>
</defs>
</svg>
